<?xml version="1.0" standalone="no"?>
<!DOCTYPE svg PUBLIC "-//W3C//DTD SVG 20010904//EN"
 "http://www.w3.org/TR/2001/REC-SVG-20010904/DTD/svg10.dtd">
<svg version="1.0" xmlns="http://www.w3.org/2000/svg"
 width="160.000000pt" height="160.000000pt" viewBox="0 0 160.000000 160.000000"
 preserveAspectRatio="xMidYMid meet">
<metadata>
Created by potrace 1.11, written by Peter Selinger 2001-2013
</metadata>
<g transform="translate(0.000000,160.000000) scale(0.100000,-0.100000)"
fill="#000000" stroke="none">
<path d="M940 1281 c-15 -29 -12 -83 6 -109 8 -12 48 -46 88 -76 85 -63 131
-116 177 -206 33 -63 33 -68 34 -191 0 -124 0 -125 -37 -200 -38 -76 -112
-161 -178 -202 -32 -19 -34 -20 -20 -2 8 11 37 41 63 68 114 117 148 277 93
435 -27 77 -101 165 -199 237 l-37 27 -16 -38 c-22 -52 -15 -66 85 -170 106
-111 124 -150 125 -269 1 -75 -3 -98 -23 -139 -29 -58 -72 -109 -125 -148 -62
-45 -63 -33 -2 27 73 70 99 128 100 221 1 63 -3 80 -34 139 -55 107 -138 155
-265 155 -74 0 -129 -24 -185 -80 -61 -61 -85 -119 -85 -210 0 -91 26 -154 87
-217 23 -24 38 -46 35 -50 -4 -4 -36 23 -72 60 -84 88 -109 150 -103 262 6
102 24 139 125 245 90 95 102 120 79 174 l-16 38 -27 -22 c-60 -46 -146 -136
-171 -178 -37 -65 -59 -156 -55 -232 6 -116 39 -187 129 -281 35 -36 61 -68
58 -72 -4 -3 7 -9 22 -12 32 -7 79 -18 135 -33 43 -11 99 -8 108 6 3 5 37 12
74 15 56 4 80 13 135 45 127 76 221 199 253 332 7 30 12 98 12 150 -1 190 -80
328 -258 454 -92 66 -102 70 -115 47z m-55 -580 c51 -23 111 -89 124 -138 26
-91 7 -171 -57 -235 -48 -50 -60 -48 -23 3 57 78 51 173 -14 240 -83 86 -210
70 -281 -35 -42 -62 -35 -141 18 -209 44 -55 25 -58 -26 -4 -111 115 -81 307
59 380 42 23 149 21 200 -2z m-51 -185 c101 -42 104 -180 6 -231 -112 -58
-225 75 -154 182 18 28 72 63 97 63 10 0 32 -6 51 -14z"/>
<path d="M539 1247 c-179 -135 -252 -245 -279 -425 -14 -85 6 -194 51 -290 35
-73 154 -202 219 -235 25 -13 29 -14 16 -3 -120 98 -160 149 -195 254 -72 211
8 426 209 561 54 36 80 74 82 115 1 36 -15 66 -36 66 -6 0 -36 -19 -67 -43z"/>
<path d="M760 1240 c-16 -16 -18 -25 -10 -40 13 -24 43 -41 57 -32 5 4 15 17
21 28 9 17 8 24 -6 36 -32 28 -41 29 -62 8z"/>
<path d="M746 1084 c-30 -31 -32 -41 -10 -72 25 -37 52 -46 79 -28 36 24 48
51 34 79 -28 52 -64 59 -103 21z"/>
</g>
</svg>
